<svg xmlns="http://www.w3.org/2000/svg" viewBox="0 0 32 32"><defs><style>.cls-1{fill:#d85945;}</style></defs><g id="Layer_2" data-name="Layer 2"><g id="Layer_1-2" data-name="Layer 1"><path class="cls-1" d="M6.4,0V10.11l0,15.83H22.5l.19,0,.24,0a2.75,2.75,0,0,0,1-.48,1.76,1.76,0,0,0,.69-1.12,2.86,2.86,0,0,0-1-2.6,9.76,9.76,0,0,0-3-1.78l-.84-.33-.84-.34a15.56,15.56,0,0,1-4-1.93A4.58,4.58,0,0,1,13,13.38,6.94,6.94,0,0,1,15.69,8a10.74,10.74,0,0,1,6.85-2.23H32v4.71H22.57a3.46,3.46,0,0,0-2.31.79A2.37,2.37,0,0,0,19.41,13a1.89,1.89,0,0,0,1.11,1.63,19.52,19.52,0,0,0,2.85,1.22l1.65.63,1.64.63a9.42,9.42,0,0,1,3.84,2.66,6.57,6.57,0,0,1,1.36,4.28,7.23,7.23,0,0,1-2.63,5.55A11.31,11.31,0,0,1,21.82,32H0V0Z"/></g></g></svg>