<svg xmlns="http://www.w3.org/2000/svg" viewBox="0 0 385.17 56"><defs><style>.cls-1{fill:#d85945;}</style></defs><g id="Layer_2" data-name="Layer 2"><g id="Layer_1-2" data-name="Layer 1"><path class="cls-1" d="M47.75,10h-8.3a18.79,18.79,0,0,0-12,3.91,12.18,12.18,0,0,0-4.67,9.49,8.05,8.05,0,0,0,3.33,6.81,27.41,27.41,0,0,0,6.94,3.37l1.47.59,1.48.59a17,17,0,0,1,5.23,3.11,5,5,0,0,1,1.83,4.55,3.11,3.11,0,0,1-1.22,2,4.89,4.89,0,0,1-1.71.84,3.21,3.21,0,0,1-.43.1,2.26,2.26,0,0,1-.33,0l-.23,0H11.28L11.2,17.68V0H0V56H38.18c5.57,0,10-1.62,13-4.16a12.62,12.62,0,0,0,4.6-9.71,11.57,11.57,0,0,0-2.37-7.5A16.47,16.47,0,0,0,46.66,30l-2.88-1.11-2.87-1.1a32.66,32.66,0,0,1-5-2.14A3.3,3.3,0,0,1,34,22.76a4.11,4.11,0,0,1,1.48-3.11,6,6,0,0,1,4-1.38H56V10Z"/><path d="M91.66,11.75h5.56V42.42h15v4.71H91.66Z"/><path d="M115.42,33.93c0-8.55,5.9-13.88,12-13.88,7,0,10.8,5,10.8,12.48a14.71,14.71,0,0,1-.29,2.84H120.84c.43,5,3.6,8.06,8.16,8.06a11.21,11.21,0,0,0,6.29-2L137.21,45a16,16,0,0,1-8.93,2.78C121.13,47.75,115.42,42.66,115.42,33.93Zm18-2.4c0-4.52-2.07-7.16-5.91-7.16-3.31,0-6.24,2.55-6.77,7.16Z"/><path d="M142.54,33.93c0-8.79,5.9-13.88,12.43-13.88s12.43,5.09,12.43,13.88S161.5,47.75,155,47.75,142.54,42.71,142.54,33.93Zm19.2,0c0-5.57-2.59-9.32-6.77-9.32s-6.72,3.75-6.72,9.32,2.59,9.31,6.72,9.31S161.74,39.54,161.74,33.93Z"/><path d="M182.66,42.57l3.27-3.84a13.7,13.7,0,0,0,9.41,4.17c4.27,0,6.67-2,6.67-5,0-3.22-2.4-4.22-5.67-5.66l-4.89-2.12c-3.41-1.44-7.2-4.12-7.2-9.26,0-5.57,4.89-9.75,11.61-9.75a15.13,15.13,0,0,1,10.71,4.47l-2.93,3.55A11.26,11.26,0,0,0,195.86,16c-3.6,0-6,1.73-6,4.52,0,3.07,2.83,4.22,5.71,5.37l4.85,2.07c4.18,1.77,7.2,4.36,7.2,9.55,0,5.66-4.7,10.27-12.43,10.27A17.65,17.65,0,0,1,182.66,42.57Z"/><path d="M213.86,8.87h5.52V19l-.24,5.23c2.31-2.21,5-4.18,8.55-4.18,5.61,0,8.11,3.75,8.11,10.47V47.13h-5.52V31.19c0-4.56-1.34-6.38-4.46-6.38-2.45,0-4.13,1.24-6.44,3.6V47.13h-5.52Z"/><path d="M241.8,33.93c0-8.55,5.9-13.88,12-13.88,7,0,10.8,5,10.8,12.48a14.71,14.71,0,0,1-.29,2.84H247.22c.44,5,3.6,8.06,8.16,8.06a11.18,11.18,0,0,0,6.29-2L263.59,45a16,16,0,0,1-8.93,2.78C247.51,47.75,241.8,42.66,241.8,33.93Zm18.05-2.4c0-4.52-2.07-7.16-5.91-7.16-3.31,0-6.24,2.55-6.77,7.16Z"/><path d="M270.79,20.73h4.51l.43,4.75h.15c1.87-3.41,4.65-5.43,7.49-5.43a6.59,6.59,0,0,1,3,.58l-1,4.8a7.74,7.74,0,0,0-2.64-.43c-2.16,0-4.75,1.49-6.38,5.66V47.13h-5.52Z"/><path d="M290.42,20.73h4.51l.44,3.69h.14c2.26-2.4,4.9-4.37,8.16-4.37,3.94,0,6.15,1.83,7.3,4.85,2.59-2.78,5.28-4.85,8.59-4.85,5.52,0,8.11,3.75,8.11,10.47V47.13h-5.52V31.19c0-4.56-1.44-6.38-4.41-6.38-1.83,0-3.75,1.2-6,3.6V47.13h-5.52V31.19c0-4.56-1.39-6.38-4.41-6.38q-2.67,0-5.91,3.6V47.13h-5.52Z"/><path d="M334.1,40.12c0-5.66,4.8-8.59,15.79-9.79,0-3.08-1.15-5.76-5-5.76a14.53,14.53,0,0,0-7.63,2.68l-2.06-3.74a20.18,20.18,0,0,1,10.65-3.46c6.58,0,9.61,4.18,9.61,11.19V47.13H350.9l-.43-3h-.19c-2.4,2.07-5.23,3.65-8.4,3.65C337.32,47.75,334.1,44.78,334.1,40.12Zm15.79.19V33.83c-7.82.91-10.46,2.93-10.46,5.91,0,2.59,1.78,3.64,4.13,3.64S347.73,42.28,349.89,40.31Z"/><path d="M363.24,20.73h4.51l.43,3.64h.15c2.44-2.35,5.13-4.32,8.73-4.32,5.62,0,8.11,3.75,8.11,10.47V47.13h-5.52V31.19c0-4.56-1.34-6.38-4.46-6.38-2.45,0-4.13,1.24-6.43,3.6V47.13h-5.52Z"/></g></g></svg>